<svg width="60" height="60" viewBox="0 0 60 60" fill="none" xmlns="http://www.w3.org/2000/svg">
<g clip-path="url(#clip0_755_580)">
<path d="M34.09 14.0253C32.6699 13.636 31.1955 13.4387 29.7078 13.4387C20.5866 13.4387 13.1662 20.8592 13.1662 29.9803C13.1662 39.1014 20.5866 46.5219 29.7078 46.5219C38.8289 46.5219 46.2494 39.1014 46.2494 29.9803C46.2494 28.4926 46.052 27.0182 45.6628 25.598C45.3953 24.6224 45.9695 23.6147 46.9451 23.3473C47.9201 23.08 48.9284 23.654 49.1958 24.6296C49.6715 26.3653 49.9128 28.1655 49.9128 29.9803C49.9128 41.1213 40.8488 50.1853 29.7078 50.1853C18.5667 50.1853 9.50273 41.1213 9.50273 29.9803C9.50273 18.8392 18.5667 9.77526 29.7078 9.77526C31.5226 9.77526 33.3228 10.0165 35.0584 10.4923C35.872 10.7153 36.4064 11.4532 36.4063 12.258C36.4063 12.4182 36.385 12.581 36.3407 12.743C36.0734 13.7186 35.0659 14.2931 34.09 14.0253ZM55.5369 20.4142C54.5669 20.7014 54.0133 21.7204 54.3005 22.6905C54.9981 25.0466 55.3517 27.4991 55.3517 29.9803C55.3517 44.1204 43.8479 55.6242 29.7078 55.6242C15.5676 55.6242 4.06381 44.1204 4.06381 29.9803C4.06381 15.8402 15.5676 4.33634 29.7078 4.33634C32.189 4.33634 34.6416 4.68997 36.9972 5.3874C37.9673 5.67475 38.9863 5.12088 39.2735 4.15099C39.3248 3.97755 39.3493 3.80274 39.3493 3.63067C39.3495 2.84017 38.8338 2.11058 38.0371 1.87463C35.3436 1.07715 32.5413 0.672916 29.7078 0.672916C21.8795 0.672916 14.5197 3.72145 8.98425 9.25677C3.44893 14.7923 0.400391 22.152 0.400391 29.9803C0.400391 37.8086 3.44893 45.1684 8.98425 50.7038C14.5196 56.2392 21.8795 59.2877 29.7078 59.2877C37.536 59.2877 44.8957 56.2391 50.4313 50.7038C55.9666 45.1684 59.0151 37.8086 59.0151 29.9803C59.0151 27.147 58.6108 24.3445 57.8133 21.6506C57.5262 20.6806 56.5068 20.1274 55.5369 20.4142ZM29.7078 22.6534C29.9771 22.6534 30.2491 22.6683 30.5163 22.6976C31.5224 22.8083 32.4267 22.0822 32.5368 21.0767C32.6472 20.0711 31.9215 19.1664 30.9159 19.0562C30.5163 19.0122 30.1101 18.99 29.7078 18.99C23.6477 18.99 18.7175 23.9202 18.7175 29.9803C18.7175 36.0404 23.6477 40.9706 29.7078 40.9706C35.7679 40.9706 40.698 36.0404 40.698 29.9803C40.698 28.9686 39.878 28.1486 38.8663 28.1486C37.8546 28.1486 37.0346 28.9686 37.0346 29.9803C37.0346 34.0204 33.7478 37.3071 29.7078 37.3071C25.6677 37.3071 22.3809 34.0204 22.3809 29.9803C22.3809 25.9402 25.6677 22.6534 29.7078 22.6534ZM39.0602 18.0376L39.9727 8.88516C40.0146 8.4641 40.2009 8.07074 40.5001 7.7716L47.0625 1.20938C47.5681 0.70394 48.3211 0.538743 48.9919 0.786138C49.6624 1.03353 50.1279 1.64853 50.1839 2.36118L50.7042 8.98396L57.3269 9.50416C58.0395 9.56015 58.6545 10.0256 58.9019 10.6962C59.1493 11.3668 58.9841 12.1201 58.4787 12.6255L51.9163 19.1877C51.6173 19.4869 51.2238 19.6733 50.8029 19.7152L41.6506 20.628L31.003 31.2755C30.6453 31.6332 30.1766 31.812 29.7078 31.812C29.2388 31.812 28.7703 31.6332 28.4126 31.2754C27.6972 30.5601 27.6972 29.4003 28.4126 28.685L39.0602 18.0376ZM42.8626 16.8256L49.7883 16.1348L53.078 12.8452L48.8573 12.5137C47.9588 12.443 47.2452 11.7294 47.1746 10.831L46.8431 6.60995L43.5532 9.8997L42.8626 16.8256Z" fill="#33384B"/>
</g>
<defs>
<clipPath id="clip0_755_580">
<rect width="58.6147" height="58.6147" fill="white" transform="translate(0.400391 0.67334)"/>
</clipPath>
</defs>
</svg>
