<svg width="27" height="27" viewBox="0 0 27 27" fill="none" xmlns="http://www.w3.org/2000/svg">
<path d="M2.18573 13.1144C2.18573 8.99293 2.18573 6.93221 3.4661 5.65183C4.74648 4.37146 6.8072 4.37146 10.9287 4.37146H15.3001C19.4216 4.37146 21.4824 4.37146 22.7627 5.65183C24.0431 6.93221 24.0431 8.99293 24.0431 13.1144V15.3001C24.0431 19.4216 24.0431 21.4824 22.7627 22.7627C21.4824 24.0431 19.4216 24.0431 15.3001 24.0431H10.9287C6.8072 24.0431 4.74648 24.0431 3.4661 22.7627C2.18573 21.4824 2.18573 19.4216 2.18573 15.3001V13.1144Z" stroke="#33384B" stroke-width="1.6393"/>
<path d="M7.65009 4.37148V2.73218" stroke="#33384B" stroke-width="1.6393" stroke-linecap="round"/>
<path d="M18.5787 4.37148V2.73218" stroke="#33384B" stroke-width="1.6393" stroke-linecap="round"/>
<path d="M2.73218 9.83582H23.4967" stroke="#33384B" stroke-width="1.6393" stroke-linecap="round"/>
<path d="M19.6716 18.5787C19.6716 19.1823 19.1824 19.6716 18.5788 19.6716C17.9752 19.6716 17.4859 19.1823 17.4859 18.5787C17.4859 17.9751 17.9752 17.4858 18.5788 17.4858C19.1824 17.4858 19.6716 17.9751 19.6716 18.5787Z" fill="#33384B"/>
<path d="M19.6716 14.2072C19.6716 14.8108 19.1824 15.3001 18.5788 15.3001C17.9752 15.3001 17.4859 14.8108 17.4859 14.2072C17.4859 13.6037 17.9752 13.1144 18.5788 13.1144C19.1824 13.1144 19.6716 13.6037 19.6716 14.2072Z" fill="#33384B"/>
<path d="M14.2073 18.5787C14.2073 19.1823 13.718 19.6716 13.1144 19.6716C12.5108 19.6716 12.0215 19.1823 12.0215 18.5787C12.0215 17.9751 12.5108 17.4858 13.1144 17.4858C13.718 17.4858 14.2073 17.9751 14.2073 18.5787Z" fill="#33384B"/>
<path d="M14.2073 14.2072C14.2073 14.8108 13.718 15.3001 13.1144 15.3001C12.5108 15.3001 12.0215 14.8108 12.0215 14.2072C12.0215 13.6037 12.5108 13.1144 13.1144 13.1144C13.718 13.1144 14.2073 13.6037 14.2073 14.2072Z" fill="#33384B"/>
<path d="M8.74293 18.5787C8.74293 19.1823 8.25363 19.6716 7.65006 19.6716C7.04649 19.6716 6.55719 19.1823 6.55719 18.5787C6.55719 17.9751 7.04649 17.4858 7.65006 17.4858C8.25363 17.4858 8.74293 17.9751 8.74293 18.5787Z" fill="#33384B"/>
<path d="M8.74293 14.2072C8.74293 14.8108 8.25363 15.3001 7.65006 15.3001C7.04649 15.3001 6.55719 14.8108 6.55719 14.2072C6.55719 13.6037 7.04649 13.1144 7.65006 13.1144C8.25363 13.1144 8.74293 13.6037 8.74293 14.2072Z" fill="#33384B"/>
</svg>
