<svg width="108" height="108" viewBox="0 0 108 108" fill="none" xmlns="http://www.w3.org/2000/svg">
<circle cx="53.7427" cy="53.7427" r="53.7427" fill="url(#paint0_linear_2850_943)"/>
<circle cx="53.7439" cy="53.7419" r="44.3142" fill="url(#paint1_linear_2850_943)"/>
<path d="M67.7656 55.3193C62.89 55.3193 54.625 56.3706 54.625 60.3037V74.8037C54.625 78.7368 62.89 79.7881 67.7656 79.7881C72.6413 79.7881 80.9062 78.7368 80.9062 74.8037V60.3037C80.9062 56.3706 72.6413 55.3193 67.7656 55.3193ZM57.3438 67.5175V63.53C60.1894 64.8531 64.6481 65.3062 67.7656 65.3062C70.8831 65.3062 75.36 64.8531 78.1875 63.5118V67.5175C77.9156 68.1881 74.4356 69.8375 67.7656 69.8375C61.0956 69.8375 57.6519 68.2062 57.3438 67.5356V67.5175ZM67.7656 58.0381C74.3813 58.0381 77.8431 59.6693 78.1694 60.2856C77.825 60.9743 74.345 62.5693 67.7656 62.5693C61.1862 62.5693 57.815 60.9925 57.38 60.3037C57.7788 59.615 61.2406 58.0381 67.7656 58.0381ZM67.7656 77.0693C61.0775 77.0693 57.5975 75.4018 57.3438 74.8037V70.7618C60.1894 72.1031 64.6481 72.5381 67.7656 72.5381C70.8831 72.5381 75.36 72.1031 78.1875 70.7618V74.7493C77.9337 75.4018 74.4356 77.0693 67.7656 77.0693ZM44.2031 29.9443C39.3275 29.9443 31.0625 30.9956 31.0625 34.9287V49.4287C31.0625 53.3618 39.3275 54.4131 44.2031 54.4131C49.0788 54.4131 57.3438 53.3618 57.3438 49.4287V34.9287C57.3438 30.9956 49.0788 29.9443 44.2031 29.9443ZM33.7812 42.1425V38.155C36.6269 39.4781 41.0856 39.9312 44.2031 39.9312C47.3206 39.9312 51.7975 39.4781 54.625 38.1368V42.1425C54.3531 42.8131 50.8731 44.4625 44.2031 44.4625C37.5331 44.4625 34.0894 42.8312 33.7812 42.1606V42.1425ZM44.2031 32.6631C50.8188 32.6631 54.2806 34.2943 54.6069 34.9106C54.2625 35.5993 50.7825 37.1943 44.2031 37.1943C37.6237 37.1943 34.2525 35.6175 33.8175 34.9287C34.2162 34.24 37.6781 32.6631 44.2031 32.6631ZM44.2031 51.6943C37.515 51.6943 34.035 50.0268 33.7812 49.4287V45.3868C36.6269 46.7281 41.0856 47.1631 44.2031 47.1631C47.3206 47.1631 51.7975 46.7281 54.625 45.3868V49.3743C54.3712 50.0268 50.8731 51.6943 44.2031 51.6943ZM68.2188 52.6006C67.4756 52.6006 66.8594 51.9843 66.8594 51.2412V40.8193C66.8594 39.5687 65.8444 38.5537 64.5938 38.5537H61.4219C60.6788 38.5537 60.0625 37.9375 60.0625 37.1943C60.0625 36.4512 60.6788 35.835 61.4219 35.835H64.5938C67.3487 35.835 69.5781 38.0643 69.5781 40.8193V51.2412C69.5781 51.9843 68.9619 52.6006 68.2188 52.6006ZM50.5469 73.8975H47.375C44.62 73.8975 42.3906 71.6681 42.3906 68.9131V58.4912C42.3906 57.7481 43.0069 57.1318 43.75 57.1318C44.4931 57.1318 45.1094 57.7481 45.1094 58.4912V68.9131C45.1094 70.1637 46.1244 71.1787 47.375 71.1787H50.5469C51.29 71.1787 51.9062 71.795 51.9062 72.5381C51.9062 73.2812 51.29 73.8975 50.5469 73.8975Z" fill="#29B5E8"/>
<defs>
<linearGradient id="paint0_linear_2850_943" x1="-9.1477" y1="90.3336" x2="107.485" y2="48.5972" gradientUnits="userSpaceOnUse">
<stop stop-color="#E9F6FD" stop-opacity="0"/>
<stop offset="1" stop-color="#E2F4FF" stop-opacity="0.69"/>
</linearGradient>
<linearGradient id="paint1_linear_2850_943" x1="1.88685" y1="83.9133" x2="98.0581" y2="49.4991" gradientUnits="userSpaceOnUse">
<stop stop-color="#E9F6FD" stop-opacity="0.2"/>
<stop offset="1" stop-color="#D9F0FE"/>
</linearGradient>
</defs>
</svg>
